<?xml version="1.0" encoding="UTF-8"?>
<svg id="Layer_1" data-name="Layer 1" xmlns="http://www.w3.org/2000/svg" viewBox="0 0 381.46 77.26">
  <g>
    <path d="M72.52,7.58c.48,.15,.72,.23,.72,.26v6.68h-2.56c-1.65,0-2.85,.43-3.58,1.28-.73,.85-1.1,2.12-1.1,3.8v9.4h-7.96V7.88h6.52l.52,3.2c.48-1.23,1.24-2.15,2.28-2.78,1.04-.63,2.21-.94,3.52-.94,.61,0,1.16,.07,1.64,.22Z"/>
    <path d="M94.27,9.02c2.03,1.08,3.04,2.83,3.04,5.26v8.24c0,.45,.11,.83,.32,1.12,.21,.29,.53,.44,.96,.44h1.44v4.6c-.08,.05-.29,.14-.62,.26-.33,.12-.81,.24-1.42,.36-.61,.12-1.32,.18-2.12,.18-1.55,0-2.82-.23-3.82-.7-1-.47-1.69-1.11-2.06-1.94-1.01,.8-2.15,1.44-3.4,1.92-1.25,.48-2.72,.72-4.4,.72-4.96,0-7.44-1.97-7.44-5.92,0-2.05,.55-3.62,1.66-4.7,1.11-1.08,2.7-1.82,4.78-2.22s4.8-.6,8.16-.6v-1.04c0-.83-.29-1.45-.86-1.88-.57-.43-1.31-.64-2.22-.64-.83,0-1.54,.15-2.14,.44-.6,.29-.9,.76-.9,1.4v.16h-7.84c-.03-.13-.04-.32-.04-.56,0-2,.95-3.59,2.86-4.76,1.91-1.17,4.63-1.76,8.18-1.76,3.23,0,5.85,.54,7.88,1.62Zm-9.94,11.52c-1.08,.49-1.62,1.15-1.62,1.98,0,1.33,.91,2,2.72,2,1.04,0,1.95-.28,2.74-.84,.79-.56,1.18-1.25,1.18-2.08v-1.8c-2.27,0-3.94,.25-5.02,.74Z"/>
    <path d="M122.89,9.44c1.23,1.36,1.84,3.32,1.84,5.88v13.68h-7.96v-12.72c0-.91-.23-1.63-.7-2.18-.47-.55-1.13-.82-1.98-.82-.99,0-1.79,.32-2.4,.96-.61,.64-.92,1.43-.92,2.36v12.4h-7.96V7.88h6.52l.52,3.2c.83-1.12,1.91-2.01,3.26-2.68,1.35-.67,2.77-1,4.26-1,2.45,0,4.29,.68,5.52,2.04Z"/>
    <path d="M144.67,29l-.68-3c-1.55,2.32-3.79,3.48-6.72,3.48s-5.05-.93-6.6-2.8c-1.55-1.87-2.32-4.63-2.32-8.28s.77-6.37,2.32-8.22,3.75-2.78,6.6-2.78c2.43,0,4.4,.81,5.92,2.44V0h7.96V29h-6.48Zm-8.36-11.6v2.12c0,2.72,1.15,4.08,3.44,4.08,1.17,0,2.05-.41,2.64-1.24,.59-.83,.88-1.91,.88-3.24v-1.32c0-1.33-.29-2.42-.88-3.26-.59-.84-1.47-1.26-2.64-1.26-2.29,0-3.44,1.37-3.44,4.12Z"/>
  </g>
  <g>
    <path d="M236.41,77.26c-1.17,0-2.03-.23-2.58-.7-.54-.46-.82-1.08-.82-1.84,0-.34,.03-.65,.08-.94,.05-.28,.11-.51,.17-.7l6.18-23.01h-3.16v-.72h8.11l-6.88,25.47c-.02,.11-.05,.22-.06,.33-.02,.11-.03,.21-.03,.29,0,.39,.18,.59,.53,.59,.38,0,.78-.15,1.21-.46,.43-.31,.89-.83,1.39-1.57,.5-.74,1.02-1.77,1.59-3.09l.7,.24c-.59,1.41-1.19,2.56-1.81,3.46-.62,.9-1.3,1.56-2.05,1.99-.75,.43-1.61,.64-2.59,.64Z"/>
    <path d="M250.43,77.26c-1.33,0-2.44-.26-3.33-.78-.89-.52-1.55-1.22-2-2.11-.45-.89-.67-1.88-.67-2.98,0-1.5,.28-2.96,.84-4.37s1.35-2.66,2.35-3.77c1-1.11,2.17-1.98,3.49-2.63,1.32-.65,2.74-.97,4.26-.97,1.74,0,3.09,.38,4.06,1.14,.97,.76,1.45,1.69,1.45,2.79,0,.89-.28,1.71-.83,2.44-.56,.73-1.35,1.37-2.38,1.91-1.03,.54-2.27,.97-3.7,1.29s-3.03,.54-4.79,.63v-.57c.87-.06,1.69-.27,2.46-.63,.77-.36,1.47-.82,2.11-1.37,.64-.55,1.18-1.15,1.64-1.8,.46-.65,.82-1.3,1.07-1.95,.26-.65,.38-1.26,.38-1.81,0-.38-.08-.7-.25-.97-.17-.27-.45-.4-.85-.4-.54,0-1.08,.23-1.62,.69-.54,.46-1.06,1.08-1.56,1.85-.5,.78-.96,1.65-1.39,2.61-.43,.96-.8,1.95-1.12,2.96-.32,1.02-.57,2-.74,2.95-.18,.95-.27,1.79-.27,2.52,0,.89,.21,1.51,.64,1.86,.43,.35,.98,.52,1.65,.52,.82,0,1.65-.19,2.49-.56,.84-.37,1.64-.9,2.4-1.59,.76-.69,1.44-1.49,2.05-2.42l.64,.4c-.58,.87-1.26,1.69-2.06,2.47s-1.72,1.41-2.78,1.91c-1.06,.5-2.27,.74-3.64,.74Z"/>
    <path d="M264.18,77.26c-.79,0-1.45-.17-1.96-.5-.51-.33-.9-.75-1.15-1.25-.25-.5-.38-1.03-.38-1.58,0-.87,.27-1.58,.81-2.13,.54-.55,1.25-.83,2.13-.83s1.57,.28,2.06,.83c.49,.55,.73,1.19,.73,1.93,0,.49-.11,.94-.33,1.34-.22,.4-.54,.73-.96,.99s-.93,.39-1.51,.39c-.47,0-.92-.1-1.37-.31-.45-.21-.81-.5-1.09-.87-.28-.37-.42-.82-.42-1.33h.7c0,.7,.26,1.28,.77,1.76s1.25,.72,2.2,.72c.39,0,.77-.08,1.13-.23,.36-.15,.69-.36,1-.61,.3-.26,.58-.53,.83-.83,.35-.44,.7-.91,1.03-1.42,.33-.51,.69-1.13,1.07-1.86,.38-.73,.83-1.65,1.35-2.75l.72,.35c-.48,.99-.98,1.97-1.51,2.94s-1.1,1.85-1.71,2.65-1.25,1.44-1.94,1.91c-.68,.47-1.41,.71-2.18,.71Zm11.56,0c-1.21,0-2.17-.31-2.88-.93-.71-.62-1.23-1.48-1.56-2.58-.25-.78-.52-1.71-.82-2.79s-.62-2.19-.95-3.34c-.34-1.15-.66-2.23-.97-3.25-.31-1.02-.59-1.85-.83-2.51-.07-.2-.17-.4-.3-.61-.13-.21-.36-.31-.69-.31-.31,0-.64,.14-1,.42-.36,.28-.72,.69-1.07,1.22-.36,.53-.68,1.17-.97,1.9l-.66-.31c.65-1.55,1.42-2.69,2.32-3.42,.9-.73,2.01-1.09,3.33-1.09,1.22,0,2.14,.31,2.76,.92,.62,.61,1.09,1.47,1.42,2.59,.25,.82,.52,1.73,.82,2.73,.3,1,.61,2.04,.94,3.11,.33,1.07,.66,2.12,1,3.16,.34,1.03,.66,1.99,.98,2.87,.07,.2,.19,.39,.36,.59s.41,.29,.73,.29c.27,0,.58-.13,.94-.39,.35-.26,.71-.65,1.06-1.16,.35-.51,.68-1.12,.97-1.83l.66,.31c-.66,1.58-1.46,2.71-2.4,3.39-.94,.68-2,1.02-3.17,1.02Zm-2.64-9.07l-.72-.37c.64-1.17,1.24-2.26,1.81-3.26,.57-1,1.14-1.87,1.72-2.61,.57-.74,1.18-1.31,1.82-1.72s1.34-.61,2.11-.61,1.39,.15,1.88,.44c.5,.29,.86,.68,1.1,1.15,.24,.47,.36,.97,.36,1.5,0,.87-.26,1.57-.77,2.11-.51,.54-1.21,.81-2.07,.81s-1.59-.28-2.06-.85c-.47-.57-.71-1.22-.71-1.95,0-.67,.24-1.28,.72-1.83,.48-.55,1.14-.83,1.97-.83,.46,0,.92,.12,1.36,.36,.44,.24,.8,.55,1.09,.94,.29,.39,.43,.8,.43,1.26h-.7c0-.65-.25-1.19-.76-1.63-.51-.44-1.23-.66-2.17-.66-.39,0-.77,.08-1.13,.25-.36,.17-.7,.38-1.01,.64-.31,.26-.58,.55-.82,.85-.34,.43-.68,.9-1.01,1.41-.33,.51-.69,1.13-1.08,1.86-.39,.73-.84,1.64-1.36,2.74Z"/>
    <path d="M288.38,77.26c-1.69,0-2.91-.54-3.66-1.62-.75-1.08-1.13-2.53-1.13-4.34,0-1.41,.26-2.8,.79-4.17,.53-1.38,1.23-2.63,2.11-3.75s1.86-2.03,2.94-2.71c1.08-.68,2.17-1.02,3.29-1.02,.76,0,1.39,.19,1.89,.58,.5,.39,.88,.92,1.12,1.62,.24,.69,.37,1.5,.37,2.41,0,.61-.08,1.35-.23,2.23-.15,.88-.38,1.8-.68,2.78-.3,.98-.67,1.94-1.1,2.88-.43,.94-.94,1.8-1.5,2.57-.57,.77-1.21,1.39-1.91,1.85-.7,.46-1.47,.7-2.29,.7Zm1.6-1.62c.49,0,.99-.25,1.51-.75,.52-.5,1.02-1.17,1.5-2.01,.48-.84,.91-1.76,1.28-2.78,.38-1.02,.68-2.04,.9-3.07,.22-1.03,.33-2,.33-2.89,0-.6-.06-1.12-.17-1.55-.12-.43-.29-.77-.52-1.02s-.54-.37-.92-.37c-.48,0-.97,.27-1.49,.82-.51,.54-1.01,1.26-1.49,2.16-.48,.89-.91,1.87-1.28,2.93-.38,1.06-.68,2.12-.91,3.17-.23,1.06-.34,2.02-.34,2.89,0,.77,.14,1.38,.41,1.82s.67,.66,1.18,.66Zm6.99,1.62c-1.12,0-1.95-.26-2.48-.78-.53-.52-.79-1.23-.79-2.12,0-.23,0-.43,.02-.61,.01-.17,.03-.32,.06-.44l.57-2.84,.94-2.92,.51-3.16,1.06-4.39h4.95l-3.96,14.9c-.05,.2-.07,.39-.07,.57,0,.16,.04,.29,.13,.4,.08,.11,.23,.17,.42,.17,.37,0,.76-.15,1.19-.46,.43-.31,.89-.83,1.39-1.57,.5-.74,1.02-1.77,1.59-3.09l.72,.24c-.6,1.41-1.21,2.56-1.82,3.46-.61,.9-1.28,1.56-1.99,1.99-.72,.43-1.53,.64-2.43,.64Z"/>
    <path d="M304,76.89l4.28-16.17h-2.44v-.72h7.49l-4.51,16.88h-4.81Zm13.87,.37c-1.13,0-1.96-.25-2.5-.76-.54-.51-.82-1.2-.82-2.06,0-.27,.03-.56,.09-.88,.06-.32,.13-.59,.2-.83l2.2-7.32c.28-.95,.47-1.74,.56-2.35s.07-1.06-.06-1.36c-.13-.29-.39-.44-.77-.44-.4,0-.9,.28-1.5,.84-.59,.56-1.21,1.34-1.85,2.33-.64,.99-1.26,2.13-1.84,3.43-.59,1.3-1.08,2.68-1.47,4.15h-.5c.28-1.06,.64-2.17,1.08-3.32s.95-2.26,1.51-3.33c.57-1.07,1.19-2.04,1.87-2.9,.68-.86,1.4-1.54,2.16-2.05,.76-.5,1.55-.75,2.37-.75,1.03,0,1.84,.24,2.44,.73,.6,.48,.98,1.14,1.14,1.97,.16,.83,.08,1.77-.22,2.81l-2.79,9.41c-.04,.1-.07,.21-.09,.35s-.04,.25-.04,.35c0,.2,.04,.35,.13,.46,.08,.11,.22,.17,.4,.17,.66,0,1.33-.4,2.02-1.19,.69-.8,1.4-2.06,2.13-3.78l.68,.24c-.6,1.48-1.22,2.67-1.87,3.56-.65,.89-1.35,1.54-2.11,1.94-.76,.4-1.61,.6-2.55,.6Z"/>
    <path d="M330.83,77.26c-1.69,0-2.91-.54-3.67-1.62-.76-1.08-1.14-2.53-1.14-4.34,0-1.41,.26-2.8,.79-4.17,.53-1.38,1.23-2.63,2.11-3.75s1.86-2.03,2.94-2.71c1.08-.68,2.17-1.02,3.29-1.02,.76,0,1.39,.19,1.88,.57s.87,.91,1.12,1.61c.25,.69,.38,1.5,.38,2.43,0,.6-.08,1.34-.23,2.21-.15,.88-.38,1.8-.67,2.77-.29,.97-.66,1.93-1.09,2.88-.43,.95-.94,1.81-1.5,2.59-.57,.78-1.21,1.4-1.91,1.86-.7,.46-1.46,.7-2.28,.7Zm1.58-1.62c.49,0,.99-.25,1.51-.76s1.02-1.18,1.5-2.01c.48-.83,.91-1.76,1.28-2.77,.38-1.02,.68-2.04,.9-3.08,.22-1.04,.33-2.01,.33-2.9,0-.59-.06-1.1-.17-1.53-.12-.43-.29-.77-.52-1.02s-.54-.37-.92-.37c-.48,0-.97,.27-1.49,.82-.51,.54-1.01,1.26-1.49,2.16-.48,.89-.91,1.87-1.28,2.93-.38,1.06-.68,2.12-.91,3.17-.23,1.06-.34,2.02-.34,2.89,0,.77,.13,1.38,.4,1.82,.27,.44,.67,.66,1.19,.66Zm6.99,1.62c-1.12,0-1.95-.26-2.48-.78-.53-.52-.79-1.23-.79-2.12,0-.13,0-.3,0-.49,0-.19,.03-.38,.06-.56l.57-2.84,1.17-3.01,.07-2.22,4.07-15.16h-2.9v-.72h7.87l-6.79,25.54c-.05,.18-.07,.37-.07,.57,0,.15,.04,.28,.12,.39,.08,.12,.22,.17,.43,.17,.38,0,.78-.15,1.2-.46s.88-.83,1.38-1.57c.5-.74,1.02-1.77,1.59-3.09l.72,.24c-.6,1.41-1.2,2.56-1.81,3.46-.61,.9-1.27,1.56-1.99,1.99-.72,.43-1.54,.64-2.44,.64Z"/>
    <path d="M353.34,77.26c-1.33,0-2.44-.26-3.33-.78-.89-.52-1.55-1.22-2-2.11-.45-.89-.67-1.88-.67-2.98,0-1.5,.28-2.96,.84-4.37s1.35-2.66,2.35-3.77c1-1.11,2.17-1.98,3.49-2.63,1.32-.65,2.74-.97,4.26-.97,1.74,0,3.09,.38,4.06,1.14,.97,.76,1.45,1.69,1.45,2.79,0,.89-.28,1.71-.83,2.44-.56,.73-1.35,1.37-2.38,1.91-1.03,.54-2.27,.97-3.7,1.29s-3.03,.54-4.79,.63v-.57c.87-.06,1.69-.27,2.46-.63,.77-.36,1.47-.82,2.11-1.37,.64-.55,1.18-1.15,1.64-1.8,.46-.65,.82-1.3,1.07-1.95,.26-.65,.38-1.26,.38-1.81,0-.38-.08-.7-.25-.97-.17-.27-.45-.4-.85-.4-.54,0-1.08,.23-1.62,.69-.54,.46-1.06,1.08-1.56,1.85-.5,.78-.96,1.65-1.39,2.61-.43,.96-.8,1.95-1.12,2.96-.32,1.02-.57,2-.74,2.95-.18,.95-.27,1.79-.27,2.52,0,.89,.21,1.51,.64,1.86,.43,.35,.98,.52,1.65,.52,.82,0,1.65-.19,2.49-.56,.84-.37,1.64-.9,2.4-1.59,.76-.69,1.44-1.49,2.05-2.42l.64,.4c-.58,.87-1.26,1.69-2.06,2.47s-1.72,1.41-2.78,1.91c-1.06,.5-2.27,.74-3.64,.74Z"/>
    <path d="M365.05,76.89l4.11-16.17h-2.86v-.72h7.63l-4.13,16.88h-4.75Zm5.6-5.23c.22-.99,.5-2.04,.83-3.14,.34-1.1,.73-2.17,1.19-3.22s.97-1.99,1.54-2.84c.57-.85,1.19-1.53,1.87-2.04,.68-.51,1.42-.76,2.21-.76,.93,0,1.69,.27,2.28,.81,.59,.54,.88,1.24,.88,2.11,0,.82-.26,1.51-.77,2.07-.51,.56-1.17,.84-1.98,.84s-1.42-.24-1.94-.72c-.52-.48-.78-1.1-.78-1.86s.26-1.38,.77-1.87,1.17-.73,1.98-.73,1.41,.2,1.92,.59c.51,.39,.76,.95,.76,1.69h-.72c0-.69-.22-1.23-.65-1.62s-1.02-.6-1.77-.6-1.39,.25-2.02,.74c-.62,.5-1.21,1.16-1.74,1.98-.54,.83-1.03,1.74-1.47,2.73s-.83,2-1.16,3.02c-.33,1.02-.61,1.96-.83,2.83h-.42Z"/>
  </g>
  <path d="M148.52,76.88L164.19,.12h11.85l-15.57,76.76h-11.94Z"/>
  <path d="M37.66,58.79H0V.31H38.15c3.01,0,5.78,.65,8.3,1.96,2.52,1.3,4.51,3.13,5.96,5.48,1.45,2.35,2.18,5.06,2.18,8.12,0,8.05-3.59,12.92-10.77,14.62v.34c6.3,1.87,9.46,6.4,9.46,13.6,0,2.72-.7,5.18-2.1,7.39-1.4,2.21-3.29,3.92-5.67,5.14-2.38,1.22-5,1.83-7.85,1.83Zm-19.49-12.83h12.5c1.15,0,2.14-.44,2.96-1.32,.82-.88,1.23-1.94,1.23-3.19v-.85c0-1.3-.4-2.39-1.19-3.27-.8-.88-1.8-1.32-3-1.32h-12.5v9.94Zm0-22.02h13.81c1.21,0,2.21-.44,3-1.32,.79-.88,1.19-1.97,1.19-3.27v-.85c0-1.3-.4-2.39-1.19-3.27-.8-.88-1.8-1.32-3-1.32h-13.81v10.03Z"/>
  <path d="M167.76,76.89v-1.5h16.89v1.5h-16.89Zm5.72,0l33.87-58.71h5.34l7.3,58.71h-12.67l-4.84-47.38-27.26,47.38h-1.73Zm11.94-18.05v-1.5h25.3v1.5h-25.3Zm13.05,18.05v-1.5h26.92v1.5h-26.92Z"/>
</svg>